<?xml version="1.0" encoding="utf-8"?>
<!-- Generator: Adobe Illustrator 16.0.0, SVG Export Plug-In . SVG Version: 6.00 Build 0)  -->
<!DOCTYPE svg PUBLIC "-//W3C//DTD SVG 1.1//EN" "http://www.w3.org/Graphics/SVG/1.1/DTD/svg11.dtd">
<svg version="1.1" id="图层_1" xmlns="http://www.w3.org/2000/svg" xmlns:xlink="http://www.w3.org/1999/xlink" x="0px" y="0px"
	 width="612px" height="612px" viewBox="0 0 612 612" enable-background="new 0 0 612 612" xml:space="preserve">
<path stroke="#000000" stroke-width="6" stroke-miterlimit="10" d="M536.884,524.972c0,6.438-5.252,11.693-11.658,11.693H87.082
	c-6.447-0.02-11.66-5.248-11.66-11.693V332.219c0-6.441,5.223-11.661,11.66-11.661h133.842
	c16.438,31.938,49.323,52.034,85.245,52.095c35.922-0.066,68.8-20.178,85.206-52.129h133.848c6.44,0,11.658,5.221,11.658,11.657
	v192.758v0.033H536.884L536.884,524.972z M151.75,88.525c2.102-6.777,11.866-13.219,20.134-13.219h268.608
	c9.15,0,18.17,7.016,20.136,13.253l60.396,193.09h-142.42c-8.314,0-15.709,5.287-18.404,13.153
	c-7.805,23.206-29.509,38.875-53.993,38.976c-24.489-0.104-46.201-15.771-54.024-38.976c-2.7-7.876-10.109-13.167-18.44-13.153
	H91.318L151.72,88.524L151.75,88.525L151.75,88.525z M570.91,310.832l-73.144-233.87c-7.217-23.08-31.857-40.536-57.311-40.536
	H171.848c-25.488,0-50.096,17.422-57.282,40.536l-73.143,233.87c-3.05,6.574-4.917,13.757-4.917,21.419v192.756
	c0,27.896,22.709,50.567,50.571,50.567h438.176c27.863,0,50.571-22.673,50.571-50.567V332.221
	C575.829,324.56,573.962,317.336,570.91,310.832L570.91,310.832z M390.5,434.343H221.845c-8.592,0-15.558,6.963-15.558,15.555
	c0,8.594,6.965,15.559,15.558,15.559h168.616c8.595,0,15.557-6.965,15.557-15.559c0-8.592-6.962-15.555-15.557-15.555H390.5z
	 M166.899,246.908h278.508c6.457,0,11.69-5.236,11.69-11.694c0-6.459-5.233-11.692-11.69-11.692l0,0H166.899
	c-6.458,0-11.694,5.233-11.694,11.692C155.205,241.669,160.441,246.908,166.899,246.908z M184.762,187.528h242.743
	c6.453,0,11.679-5.227,11.679-11.678c0-6.45-5.229-11.673-11.679-11.673H184.762c-6.459,0-11.694,5.233-11.694,11.691
	c0,6.46,5.235,11.693,11.694,11.693V187.528z M199.334,128.146h213.633c6.438-0.493,11.256-6.11,10.77-12.55
	c-0.438-5.759-5.011-10.334-10.77-10.771H199.334c-6.44,0.488-11.258,6.108-10.77,12.55
	C189.006,123.13,193.581,127.703,199.334,128.146z"/>
</svg>
